<svg xmlns="http://www.w3.org/2000/svg" version="1.1" xmlns:xlink="http://www.w3.org/1999/xlink" width="1500" height="693" viewBox="0 0 1500 693"><svg xml:space="preserve" width="1500" height="693" data-version="2" data-id="lg_jeTHn2T7MqD0VRiL37" viewBox="0 0 796 693" x="0" y="0"><rect width="100%" height="100%" fill="transparent"></rect><path fill="#ee0909" d="M204.25 430.8A137.6 182 0 0 1 281.787 267c-57.847-37.055-127.383-16.207-167.493 50.218-40.11 66.43-40.11 160.734 0 227.164 40.11 66.43 109.646 87.273 167.493 50.218a137.6 182 0 0 1-77.537-163.8"></path><path fill="#afaa0a" d="M253.496 292.196a181.447 137.233-48.819 0 1 165.659-72.406c-19.285-65.688-85.293-95.499-158.998-71.805-73.707 23.697-135.47 94.58-148.78 170.746-13.308 76.167 25.395 137.316 93.218 147.3a181.447 137.233-48.819 0 1 48.901-173.835"></path><path fill="#1c7b0a" d="M440.944 214.714a137.43 181.34-83.104 0 1 152.533 96.661c43.711-52.863 31.582-124.313-29.216-172.103-60.803-47.79-154.07-59.19-224.667-27.46-70.598 31.731-99.702 98.142-70.117 159.963a137.43 181.34-83.104 0 1 171.467-57.061"></path><circle r="50" fill="#ee0909" transform="translate(58.08 490.03)"></circle><circle r="50" fill="#afaa0a" transform="translate(142.08 177.24)"></circle><circle r="50" fill="#1c7b0a" transform="translate(449.79 56.85)"></circle><path d="M257.1 417.52q0 4.25-2.06 7.39-2.06 3.14-6 4.84-3.94 1.71-9.57 1.71-2.49 0-4.86-.33t-4.55-.97q-2.17-.63-4.14-1.58v-9.42q3.41 1.5 7.07 2.71 3.67 1.21 7.26 1.21 2.49 0 4.01-.65 1.52-.66 2.21-1.8.69-1.15.69-2.62 0-1.8-1.21-3.08-1.21-1.27-3.32-2.38-2.11-1.12-4.76-2.39-1.67-.79-3.64-1.92-1.96-1.12-3.72-2.76-1.77-1.64-2.9-3.97-1.13-2.34-1.13-5.62 0-4.28 1.96-7.32 1.97-3.05 5.61-4.67 3.65-1.61 8.62-1.61 3.73 0 7.12.86 3.39.87 7.08 2.51l-3.27 7.88q-3.3-1.34-5.92-2.08-2.62-.73-5.33-.73-1.9 0-3.24.6-1.34.61-2.03 1.7-.69 1.1-.69 2.54 0 1.7 1 2.86t3.01 2.24q2.01 1.08 5.02 2.52 3.67 1.73 6.27 3.62 2.6 1.88 4.01 4.41 1.4 2.54 1.4 6.3m47.86-34.55v47.83h-10.1v-20.64h-18.95v20.64h-10.14v-47.83h10.14v18.75h18.95v-18.75zm52.27 47.83h-10.92l-3.47-11.38H325.4l-3.47 11.38h-10.92l16.88-48.02h12.4zm-29.28-19.89h12.47l-3.47-11.12q-.33-1.11-.87-2.86-.54-1.75-1.08-3.57-.54-1.82-.86-3.16-.33 1.34-.9 3.32l-1.1 3.75q-.52 1.77-.75 2.52zm35.31-27.94h15.28q9.26 0 13.51 3.98 4.25 3.97 4.25 10.94 0 3.14-.94 6-.95 2.87-3.1 5.09-2.14 2.23-5.71 3.52-3.56 1.29-8.8 1.29h-4.35v17.01h-10.14zm14.76 8.31h-4.62v14.2h3.34q2.85 0 4.94-.75 2.09-.75 3.24-2.36 1.14-1.6 1.14-4.12 0-3.53-1.96-5.25-1.96-1.72-6.08-1.72m40.86 25.65h-17.57v-8.18h17.57zm54.23-33.97h10.11v30.95q0 4.94-2.18 8.92-2.17 3.97-6.57 6.29-4.4 2.33-11.08 2.33-9.49 0-14.46-4.85-4.97-4.84-4.97-12.82v-30.82h10.11v29.28q0 5.92 2.42 8.31 2.42 2.39 7.16 2.39 3.34 0 5.42-1.14 2.08-1.15 3.06-3.54t.98-6.08zm39.98 29.42v-8.44h18.97v24.8q-3.76 1.24-7.82 1.98-4.06.74-9.19.74-7.13 0-12.11-2.82-4.97-2.81-7.55-8.31-2.59-5.49-2.59-13.51 0-7.52 2.9-13.02 2.89-5.49 8.47-8.5t13.63-3.01q3.79 0 7.49.81 3.7.82 6.71 2.13l-3.37 8.11q-2.2-1.11-5.01-1.86-2.81-.75-5.89-.75-4.42 0-7.67 2.02-3.26 2.03-5.04 5.68-1.78 3.65-1.78 8.59 0 4.68 1.27 8.29 1.28 3.62 4.03 5.66 2.75 2.05 7.16 2.05 2.16 0 3.65-.22 1.49-.21 2.8-.44v-9.98zm70.57 18.42h-10.92l-3.47-11.38h-17.44l-3.47 11.38h-10.92l16.88-48.02h12.4zm-29.28-19.89h12.47l-3.47-11.12q-.33-1.11-.87-2.86-.54-1.75-1.08-3.57-.54-1.82-.86-3.16-.33 1.34-.9 3.32l-1.1 3.75q-.52 1.77-.75 2.52zm77.72-27.94v47.83h-12.89l-20.8-36.18h-.3q.13 2.26.23 4.55l.2 4.56q.1 2.27.19 4.56v22.51h-9.06v-47.83h12.79l20.78 35.83h.23q-.07-2.23-.17-4.42t-.18-4.39q-.08-2.19-.14-4.38v-22.64zm51.73 23.46q0 8.08-3.09 13.49-3.09 5.42-8.94 8.15-5.86 2.73-14.1 2.73h-13.55v-47.83h15.02q7.52 0 13.05 2.67 5.53 2.67 8.57 7.88 3.04 5.22 3.04 12.91m-10.53.26q0-5.3-1.55-8.72-1.56-3.42-4.58-5.05-3.03-1.64-7.48-1.64h-5.4v31.15h4.35q7.43 0 11.05-3.96 3.61-3.96 3.61-11.78m60.64 24.11h-10.92l-3.47-11.38h-17.44l-3.47 11.38h-10.92l16.88-48.02H717zm-29.28-19.89h12.47l-3.47-11.12q-.33-1.11-.87-2.86-.54-1.75-1.08-3.57-.54-1.82-.86-3.16-.33 1.34-.9 3.32l-1.1 3.75q-.52 1.77-.75 2.52z"></path><path fill="#e50c0c" d="M70.46 677.98h-5.55l-1.76-5.78H54.3l-1.76 5.78H47l8.56-24.37h6.3zm-14.86-10.1h6.32l-1.76-5.64q-.16-.56-.44-1.45l-.55-1.81q-.27-.92-.43-1.6-.17.68-.46 1.68-.29 1.01-.56 1.9-.26.9-.38 1.28zm34.16 6.39q.83 0 1.62-.17.79-.17 1.57-.42v3.77q-.81.37-2.02.61-1.2.24-2.63.24-1.66 0-2.98-.54t-2.07-1.88q-.76-1.33-.76-3.72v-8.95h-2.42v-2.14l2.79-1.7 1.46-3.91h3.24v3.95h5.19v3.8h-5.19v8.95q0 1.06.6 1.58.61.53 1.6.53m17.31-15.2q.38 0 .89.04t.82.11l-.38 4.75q-.25-.09-.71-.13-.45-.04-.78-.04-.98 0-1.9.25-.93.25-1.66.8-.73.56-1.15 1.47-.42.9-.42 2.21v9.45h-5.07v-18.56h3.84l.74 3.12h.25q.55-.95 1.37-1.74.83-.78 1.88-1.26 1.05-.47 2.28-.47m12.68-.04q3.73 0 5.72 1.62 2 1.63 2 4.95v12.37h-3.54l-.98-2.53h-.13q-.8 1-1.63 1.63-.83.63-1.91.93-1.08.3-2.62.3-1.65 0-2.95-.63-1.3-.63-2.05-1.93-.75-1.31-.75-3.32 0-2.95 2.08-4.35 2.07-1.41 6.22-1.56l3.23-.1v-.81q0-1.46-.77-2.14-.76-.68-2.12-.68-1.35 0-2.64.38-1.3.38-2.59.96l-1.68-3.42q1.48-.78 3.31-1.23 1.84-.44 3.8-.44m2.69 11.87v-1.53l-1.96.06q-2.46.07-3.42.88-.95.82-.95 2.15 0 1.16.68 1.65t1.78.49q1.62 0 2.74-.96 1.13-.97 1.13-2.74m20.78-11.83q2.97 0 4.78 1.62t1.81 5.19v12.1h-5.06v-10.84q0-1.99-.72-3.01-.73-1.01-2.27-1.01-2.32 0-3.17 1.58-.85 1.57-.85 4.55v8.73h-5.06v-18.56h3.87l.68 2.37h.28q.6-.96 1.49-1.56.88-.6 1.97-.88 1.09-.28 2.25-.28m24.75 13.4q0 1.89-.88 3.19-.89 1.31-2.65 1.98-1.76.67-4.39.67-1.94 0-3.32-.25-1.39-.25-2.8-.83v-4.18q1.51.68 3.24 1.12 1.74.44 3.05.44 1.48 0 2.12-.44.64-.44.64-1.16 0-.46-.26-.83-.26-.38-1.11-.85-.84-.47-2.65-1.24-1.74-.73-2.87-1.48-1.12-.74-1.66-1.76-.53-1.02-.53-2.6 0-2.57 2-3.88 2-1.3 5.35-1.3 1.73 0 3.3.35 1.56.35 3.22 1.11l-1.52 3.65q-1.38-.6-2.6-.98-1.22-.38-2.48-.38-1.12 0-1.68.3-.56.3-.56.91 0 .45.29.8.29.35 1.12.77.84.43 2.47 1.09 1.58.65 2.74 1.35 1.16.71 1.79 1.75.63 1.03.63 2.68m14.22-13.05v3.8h-4.38v14.76h-5.06v-14.76h-2.79v-2.44l2.79-1.36v-1.36q0-2.38.8-3.7.81-1.32 2.28-1.86 1.47-.54 3.48-.54 1.47 0 2.69.24 1.21.24 1.97.54l-1.29 3.72q-.59-.18-1.27-.33-.68-.15-1.56-.15-1.06 0-1.55.64t-.49 1.64v1.16zm19.77 9.24q0 2.33-.63 4.12-.62 1.79-1.81 3.03-1.18 1.24-2.85 1.87-1.67.63-3.76.63-1.96 0-3.6-.63-1.63-.63-2.83-1.87-1.21-1.24-1.86-3.03-.66-1.79-.66-4.12 0-3.08 1.1-5.22 1.09-2.15 3.12-3.26 2.02-1.11 4.83-1.11 2.6 0 4.62 1.11t3.17 3.26q1.16 2.14 1.16 5.22m-12.84 0q0 1.83.4 3.08.4 1.24 1.25 1.87.84.63 2.21.63 1.34 0 2.18-.63.84-.63 1.23-1.87.39-1.25.39-3.08 0-1.84-.39-3.06t-1.24-1.83q-.85-.62-2.21-.62-2.01 0-2.91 1.38-.91 1.38-.91 4.13m27.38-9.59q.38 0 .89.04.5.04.82.11l-.38 4.75q-.25-.09-.71-.13-.45-.04-.79-.04-.98 0-1.9.25-.92.25-1.65.8-.73.56-1.15 1.47-.43.9-.43 2.21v9.45h-5.06v-18.56h3.84l.74 3.12h.25q.55-.95 1.37-1.74.82-.78 1.88-1.26 1.05-.47 2.28-.47m26.88 0q3.15 0 4.77 1.62 1.62 1.62 1.62 5.19v12.1h-5.08v-10.84q0-1.99-.68-3.01-.68-1.01-2.11-1.01-2.01 0-2.86 1.44-.84 1.43-.84 4.1v9.32h-5.07v-10.84q0-1.33-.29-2.23-.3-.89-.92-1.34-.61-.45-1.57-.45-1.42 0-2.22.71-.81.7-1.15 2.07-.34 1.37-.34 3.35v8.73h-5.06v-18.56h3.87l.68 2.37h.28q.57-.96 1.42-1.56.86-.6 1.88-.88 1.03-.28 2.1-.28 2.04 0 3.46.66 1.42.67 2.18 2.06h.45q.83-1.43 2.35-2.07 1.52-.65 3.13-.65m19.24 0q2.57 0 4.43.99 1.86.98 2.87 2.86 1.02 1.88 1.02 4.58v2.46h-11.97q.08 2.14 1.28 3.36 1.21 1.22 3.35 1.22 1.77 0 3.25-.36 1.48-.37 3.04-1.1V677q-1.38.68-2.88.99-1.5.32-3.64.32-2.79 0-4.94-1.03-2.15-1.03-3.37-3.14-1.22-2.11-1.22-5.31 0-3.25 1.1-5.42t3.08-3.25q1.98-1.09 4.6-1.09m.03 3.6q-1.48 0-2.45.95-.97.94-1.12 2.97h7.11q-.02-1.13-.41-2.01-.39-.88-1.16-1.39-.77-.52-1.97-.52m18.29 15.64q-3.1 0-5.05-2.43-1.96-2.43-1.96-7.15 0-4.76 1.98-7.21t5.16-2.45q1.33 0 2.34.36 1.02.37 1.76.98.73.62 1.25 1.38h.16q-.09-.53-.24-1.57-.14-1.03-.14-2.13v-5.94h5.08v25.83h-3.88l-.98-2.41h-.22q-.48.76-1.2 1.39-.72.62-1.72.98-.99.37-2.34.37m1.78-4.03q2.07 0 2.93-1.24.85-1.24.9-3.73v-.55q0-2.7-.83-4.14-.83-1.43-3.09-1.43-1.67 0-2.62 1.44-.95 1.44-.95 4.17 0 2.72.96 4.1.95 1.38 2.7 1.38m30.23 4.03q-2.76 0-4.7-1-1.94-1.01-2.96-3.12-1.01-2.11-1.01-5.39 0-3.41 1.16-5.56 1.15-2.15 3.2-3.16 2.05-1.01 4.76-1.01 1.92 0 3.33.37 1.4.38 2.44.89l-1.49 3.92q-1.2-.48-2.23-.79-1.02-.31-2.05-.31-1.33 0-2.21.63-.88.62-1.31 1.86-.43 1.25-.43 3.12 0 1.85.46 3.06t1.34 1.8q.88.59 2.15.59 1.57 0 2.8-.42 1.23-.43 2.39-1.19v4.33q-1.16.73-2.43 1.06-1.27.32-3.21.32m26.8-9.65q0 2.33-.62 4.12-.63 1.79-1.81 3.03-1.19 1.24-2.86 1.87-1.67.63-3.76.63-1.96 0-3.59-.63-1.64-.63-2.84-1.87-1.2-1.24-1.86-3.03-.66-1.79-.66-4.12 0-3.08 1.1-5.22 1.09-2.15 3.12-3.26 2.03-1.11 4.83-1.11 2.61 0 4.62 1.11 2.02 1.11 3.18 3.26 1.15 2.14 1.15 5.22m-12.83 0q0 1.83.4 3.08.39 1.24 1.24 1.87.85.63 2.21.63 1.34 0 2.18-.63.84-.63 1.23-1.87.39-1.25.39-3.08 0-1.84-.39-3.06t-1.24-1.83q-.84-.62-2.2-.62-2.01 0-2.92 1.38-.9 1.38-.9 4.13m38.81-9.59q3.16 0 4.77 1.62 1.62 1.62 1.62 5.19v12.1h-5.08v-10.84q0-1.99-.68-3.01-.68-1.01-2.11-1.01-2.01 0-2.85 1.44-.85 1.43-.85 4.1v9.32h-5.06v-10.84q0-1.33-.3-2.23-.3-.89-.91-1.34-.62-.45-1.58-.45-1.41 0-2.22.71-.8.7-1.14 2.07-.34 1.37-.34 3.35v8.73h-5.07v-18.56h3.87l.68 2.37h.28q.57-.96 1.42-1.56.86-.6 1.89-.88 1.03-.28 2.09-.28 2.04 0 3.46.66 1.42.67 2.18 2.06h.45q.83-1.43 2.35-2.07 1.52-.65 3.13-.65m33.39 0q3.15 0 4.77 1.62 1.62 1.62 1.62 5.19v12.1h-5.08v-10.84q0-1.99-.68-3.01-.68-1.01-2.11-1.01-2.01 0-2.86 1.44-.84 1.43-.84 4.1v9.32h-5.07v-10.84q0-1.33-.3-2.23-.29-.89-.91-1.34-.61-.45-1.58-.45-1.41 0-2.21.71-.81.7-1.15 2.07-.34 1.37-.34 3.35v8.73h-5.06v-18.56h3.87l.68 2.37h.28q.56-.96 1.42-1.56.85-.6 1.88-.88 1.03-.28 2.1-.28 2.04 0 3.46.66 1.42.67 2.18 2.06h.45q.83-1.43 2.35-2.07 1.52-.65 3.13-.65m23.55.34h5.07v18.56h-3.89l-.68-2.38h-.26q-.6.95-1.5 1.55-.89.6-1.97.88t-2.24.28q-2 0-3.47-.71-1.48-.7-2.3-2.2-.82-1.49-.82-3.88v-12.1h5.06v10.84q0 1.99.71 3 .72 1.02 2.28 1.02 1.54 0 2.42-.71.88-.71 1.24-2.07.35-1.37.35-3.35zm20.92-.34q2.97 0 4.78 1.62t1.81 5.19v12.1h-5.06v-10.84q0-1.99-.72-3.01-.72-1.01-2.27-1.01-2.32 0-3.17 1.58-.85 1.57-.85 4.55v8.73h-5.06v-18.56h3.87l.68 2.37h.28q.6-.96 1.49-1.56.89-.6 1.97-.88 1.09-.28 2.25-.28m11.81.35h5.06v18.56h-5.06zm2.54-7.27q1.13 0 1.94.52t.81 1.95q0 1.41-.81 1.95t-1.94.54q-1.15 0-1.95-.54-.81-.54-.81-1.95 0-1.43.81-1.95.8-.52 1.95-.52m15.65 22.12q.83 0 1.62-.17.79-.17 1.57-.42v3.77q-.81.37-2.02.61-1.2.24-2.63.24-1.66 0-2.98-.54t-2.07-1.88q-.76-1.33-.76-3.72v-8.95h-2.42v-2.14l2.79-1.7 1.46-3.91h3.23v3.95h5.2v3.8h-5.2v8.95q0 1.06.61 1.58.61.53 1.6.53m11.66 3.58-7.38-18.43h5.55l3.5 10.44q.17.5.28 1.01.12.52.2 1.07.09.54.14 1.14h.1q.1-.9.27-1.68.17-.78.44-1.54l3.44-10.44h5.43l-7.86 20.93q-.71 1.93-1.86 3.21-1.14 1.29-2.63 1.94-1.48.65-3.26.65-.86 0-1.49-.1-.63-.09-1.08-.19v-4.01q.35.08.88.15.53.06 1.11.06 1.06 0 1.83-.45.76-.44 1.27-1.2.52-.76.82-1.65zm33.72-18.43v3.8h-4.38v14.76h-5.06v-14.76h-2.79v-2.44l2.79-1.36v-1.36q0-2.38.8-3.7.81-1.32 2.28-1.86 1.47-.54 3.47-.54 1.48 0 2.69.24 1.22.24 1.98.54l-1.3 3.72q-.58-.18-1.26-.33-.68-.15-1.56-.15-1.06 0-1.55.64t-.49 1.64v1.16zm19.77 9.24q0 2.33-.63 4.12-.62 1.79-1.81 3.03-1.18 1.24-2.85 1.87-1.67.63-3.76.63-1.96 0-3.6-.63-1.63-.63-2.83-1.87-1.21-1.24-1.86-3.03-.66-1.79-.66-4.12 0-3.08 1.1-5.22 1.09-2.15 3.12-3.26 2.02-1.11 4.83-1.11 2.6 0 4.62 1.11t3.17 3.26q1.16 2.14 1.16 5.22m-12.84 0q0 1.83.4 3.08.4 1.24 1.25 1.87.84.63 2.2.63 1.35 0 2.19-.63.84-.63 1.23-1.87.39-1.25.39-3.08 0-1.84-.39-3.06t-1.24-1.83q-.85-.62-2.21-.62-2.01 0-2.91 1.38-.91 1.38-.91 4.13m27.39-9.59q.38 0 .89.04.5.04.82.11l-.38 4.75q-.25-.09-.71-.13-.46-.04-.79-.04-.98 0-1.9.25-.92.25-1.65.8-.73.56-1.15 1.47-.43.9-.43 2.21v9.45h-5.06v-18.56h3.83l.75 3.12h.25q.55-.95 1.37-1.74.82-.78 1.88-1.26 1.05-.47 2.28-.47m13.9-6.92h5.06v6.01q0 1.04-.05 2.07-.06 1.03-.14 1.59h.19q.74-1.14 2-1.95 1.26-.8 3.27-.8 3.12 0 5.06 2.44 1.94 2.44 1.94 7.15 0 3.18-.89 5.33-.9 2.15-2.51 3.23-1.61 1.09-3.74 1.09-2.04 0-3.22-.73-1.17-.73-1.91-1.64h-.34l-.85 2.04h-3.87zm8.7 10.97q-1.33 0-2.11.55-.78.55-1.14 1.64-.35 1.1-.39 2.77v.55q0 2.71.8 4.14.8 1.44 2.91 1.44 1.56 0 2.48-1.44.92-1.45.92-4.17 0-2.72-.93-4.1-.93-1.38-2.54-1.38m20.47-4.05q2.57 0 4.43.99 1.86.98 2.87 2.86 1.02 1.88 1.02 4.58v2.46h-11.97q.08 2.14 1.28 3.36 1.21 1.22 3.35 1.22 1.78 0 3.25-.36 1.48-.37 3.04-1.1V677q-1.38.68-2.88.99-1.5.32-3.64.32-2.79 0-4.94-1.03-2.15-1.03-3.37-3.14-1.22-2.11-1.22-5.31 0-3.25 1.1-5.42 1.11-2.17 3.08-3.25 1.98-1.09 4.6-1.09m.03 3.6q-1.47 0-2.45.95-.97.94-1.12 2.97h7.11q-.02-1.13-.41-2.01-.39-.88-1.16-1.39-.77-.52-1.97-.52m20.22 11.6q.83 0 1.62-.17.79-.17 1.57-.42v3.77q-.81.37-2.02.61-1.2.24-2.63.24-1.66 0-2.98-.54t-2.07-1.88q-.76-1.33-.76-3.72v-8.95h-2.42v-2.14l2.79-1.7 1.46-3.91h3.24v3.95h5.19v3.8h-5.19v8.95q0 1.06.6 1.58.61.53 1.6.53m14.76 0q.83 0 1.62-.17.79-.17 1.57-.42v3.77q-.81.37-2.02.61-1.2.24-2.63.24-1.66 0-2.98-.54t-2.07-1.88q-.76-1.33-.76-3.72v-8.95h-2.42v-2.14l2.79-1.7 1.46-3.91h3.23v3.95h5.2v3.8h-5.2v8.95q0 1.06.61 1.58.61.53 1.6.53m14.61-15.2q2.57 0 4.43.99 1.86.98 2.87 2.86t1.01 4.58v2.46h-11.97q.09 2.14 1.29 3.36 1.2 1.22 3.34 1.22 1.78 0 3.26-.36 1.48-.37 3.04-1.1V677q-1.38.68-2.88.99-1.51.32-3.65.32-2.79 0-4.94-1.03-2.15-1.03-3.37-3.14-1.22-2.11-1.22-5.31 0-3.25 1.11-5.42 1.1-2.17 3.08-3.25 1.97-1.09 4.6-1.09m.03 3.6q-1.48 0-2.45.95-.97.94-1.12 2.97h7.1q-.01-1.13-.4-2.01-.39-.88-1.16-1.39-.78-.52-1.97-.52m22.75-3.6q.38 0 .89.04.5.04.82.11l-.38 4.75q-.25-.09-.71-.13-.45-.04-.79-.04-.98 0-1.9.25-.92.25-1.65.8-.73.56-1.15 1.47-.43.9-.43 2.21v9.45h-5.06v-18.56h3.84l.74 3.12h.25q.55-.95 1.37-1.74.82-.78 1.88-1.26 1.05-.47 2.28-.47m13.92-6.92h5.07v5.26q0 1.38-.1 2.62-.09 1.25-.14 1.76h.27q.6-.96 1.42-1.56.82-.6 1.82-.88.99-.28 2.14-.28 2.01 0 3.5.7 1.49.71 2.32 2.21.83 1.5.83 3.9v12.1h-5.06v-10.84q0-1.99-.73-3.01-.73-1.01-2.26-1.01-1.52 0-2.4.71-.88.7-1.25 2.07-.36 1.37-.36 3.35v8.73h-5.07zm29.99 6.92q2.57 0 4.43.99 1.86.98 2.88 2.86 1.01 1.88 1.01 4.58v2.46h-11.97q.08 2.14 1.28 3.36 1.21 1.22 3.35 1.22 1.78 0 3.25-.36 1.48-.37 3.04-1.1V677q-1.38.68-2.88.99-1.5.32-3.64.32-2.79 0-4.94-1.03-2.15-1.03-3.37-3.14-1.22-2.11-1.22-5.31 0-3.25 1.1-5.42 1.11-2.17 3.08-3.25 1.98-1.09 4.6-1.09m.03 3.6q-1.47 0-2.44.95-.98.94-1.13 2.97h7.11q-.02-1.13-.41-2.01-.39-.88-1.16-1.39-.77-.52-1.97-.52m20.01-3.64q3.73 0 5.73 1.62 1.99 1.63 1.99 4.95v12.37h-3.54l-.98-2.53h-.13q-.8 1-1.63 1.63-.83.63-1.91.93-1.08.3-2.62.3-1.64 0-2.95-.63-1.3-.63-2.05-1.93-.74-1.31-.74-3.32 0-2.95 2.07-4.35 2.08-1.41 6.23-1.56l3.22-.1v-.81q0-1.46-.77-2.14-.76-.68-2.12-.68-1.35 0-2.64.38-1.3.38-2.59.96l-1.68-3.42q1.48-.78 3.32-1.23 1.83-.44 3.79-.44m2.69 11.87v-1.53l-1.96.06q-2.46.07-3.41.88-.96.82-.96 2.15 0 1.16.68 1.65t1.78.49q1.63 0 2.75-.96 1.12-.97 1.12-2.74m15.3-18.75v25.83h-5.06v-25.83zm13.14 22.12q.83 0 1.62-.17.78-.17 1.56-.42v3.77q-.81.37-2.01.61-1.21.24-2.63.24-1.66 0-2.98-.54t-2.08-1.88q-.75-1.33-.75-3.72v-8.95h-2.43v-2.14l2.79-1.7 1.46-3.91h3.24v3.95h5.19v3.8h-5.19v8.95q0 1.06.6 1.58.61.53 1.61.53m6.94-22.12h5.06v5.26q0 1.38-.09 2.62-.09 1.25-.14 1.76h.26q.6-.96 1.42-1.56.82-.6 1.82-.88t2.14-.28q2.01 0 3.5.7 1.5.71 2.33 2.21.83 1.5.83 3.9v12.1h-5.06v-10.84q0-1.99-.74-3.01-.73-1.01-2.25-1.01-1.53 0-2.41.71-.88.7-1.25 2.07-.36 1.37-.36 3.35v8.73h-5.06z"></path></svg></svg>